<!DOCTYPE svg PUBLIC "-//W3C//DTD SVG 1.1//EN" "http://www.w3.org/Graphics/SVG/1.1/DTD/svg11.dtd">

<!-- Uploaded to: SVG Repo, www.svgrepo.com, Transformed by: SVG Repo Mixer Tools -->
<svg width="800px" height="800px" viewBox="-2.4 -2.4 28.80 28.80" xmlns="http://www.w3.org/2000/svg" fill="#ffffff" transform="matrix(-1, 0, 0, 1, 0, 0)rotate(0)" stroke="#ffffff">

<g id="SVGRepo_bgCarrier" stroke-width="0">

<rect x="-2.4" y="-2.4" width="28.80" height="28.80" rx="14.4" fill="#F9F6EE" strokewidth="0"/>

</g>

<g id="SVGRepo_tracerCarrier" stroke-linecap="round" stroke-linejoin="round"/>

<g id="SVGRepo_iconCarrier"> <defs> <style>.cls-1{fill:none;stroke:#333333;stroke-linecap:round;stroke-linejoin:round;stroke-width:1.5px;fill-rule:evenodd;}</style> </defs> <g id="ic-actions-star"> <path class="cls-1" d="M11,3.19a1.08,1.08,0,0,1,2.06,0l1.86,5.72h6a1.09,1.09,0,0,1,.64,2l-4.87,3.53,1.86,5.73a1.08,1.08,0,0,1-1.67,1.21L12,17.81,7.13,21.35a1.08,1.08,0,0,1-1.67-1.21l1.86-5.73L2.45,10.88a1.09,1.09,0,0,1,.64-2h6Z"/> </g> </g>

</svg>